<?xml version="1.0" encoding="UTF-8" standalone="no"?>
<svg
   enable-background="new 0 0 210 630"
   viewBox="0 0 210 630"
   version="1.1"
   id="svg55"
   sodipodi:docname="bt-bonus.svg"
   xmlns:inkscape="http://www.inkscape.org/namespaces/inkscape"
   xmlns:sodipodi="http://sodipodi.sourceforge.net/DTD/sodipodi-0.dtd"
   xmlns="http://www.w3.org/2000/svg"
   xmlns:svg="http://www.w3.org/2000/svg">
  <defs
     id="defs55" />
  <sodipodi:namedview
     id="namedview55"
     pagecolor="#ffffff"
     bordercolor="#000000"
     borderopacity="0.25"
     inkscape:showpageshadow="2"
     inkscape:pageopacity="0.0"
     inkscape:pagecheckerboard="0"
     inkscape:deskcolor="#d1d1d1" />
  <g
     fill="#fff"
     id="g55">
    <circle
       cx="19.8"
       cy="460.7"
       r="2.2"
       id="circle1" />
    <circle
       cx="26"
       cy="433.9"
       r="2.2"
       id="circle2" />
    <path
       d="m51.6 455.8c-.6-.6-1.2-1.1-1.9-1.5l-24.1-15.3 6.5 12.3-17.9-12 19.5 30.7c.5.7 1 1.4 1.6 2.1 4.5 4.5 11.7 4.5 16.2 0 4.6-4.5 4.6-11.8.1-16.3zm-3.1 13.1c-2.8 2.8-7.2 2.8-10 0s-2.8-7.2 0-10 7.2-2.8 10 0c2.7 2.8 2.7 7.3 0 10z"
       id="path2" />
    <path
       d="m48.5 245.8c-1.8-1.8-1.4-4.2-1-5.4.1-.3-.2-.6-.5-.5-1.2.3-3.6.7-4.9-1-1.6-2.2-.6-4.2.2-5.2.2-.3 0-.6-.3-.7-1-.2-2.9-.7-3.9-1.9-1.3-1.7-.8-3.5-.3-4.8-2-.3-4.1-.3-6.2.1-8.3 1.5-14.8 8.6-15.5 17-.9 11.2 7.9 20.6 18.9 20.6 10 0 18.2-7.7 18.9-17.5-1.3.3-3.9.7-5.4-.7zm-13.5 5.7c-3.6 0-6.5-2.9-6.5-6.5s2.9-6.5 6.5-6.5 6.5 2.9 6.5 6.5-2.9 6.5-6.5 6.5z"
       id="path3" />
    <path
       d="m45.9 220.2c-1.2-.3-2-.3-2.3.2-.1.3-.2 4.3-.2 4.6s1.1 1 1.4 1.1.6.1.8-.1c.1-.3 1.9-4 2.1-4.4.1-.3-.8-1.2-1.8-1.4z"
       id="path4" />
    <path
       d="m51.2 226.6c-1.6.4-2.8 1.1-3.3 2.7-.4 1.3-.2 3.9 1.1 4.3.9.3 3-.2 3.3-.8.2-.5 1-6.7-1.1-6.2z"
       id="path5" />
    <path
       d="m193.7 176.9s2-9.4.3-13.6c-1.8-4.2-7.6-8.8-7.6-8.8l-6.2 2.2 2.6 4.7-26.7 4.6c-.4.1-.7.5-.6.9l.4 2.5c.1.4.5.7.9.6l15.9-2.7-10.7 24.3c-.4.9 0 1.9.9 2.3s1.9 0 2.3-.9l9.8-22.3 9.9 22.5c.4.9 1.4 1.3 2.3.9s1.3-1.4.9-2.3l-11.1-25.3 8.5-1.4z"
       id="path6" />
    <path
       d="m187.1 311.7c1.9 0 3.9-.1 4.6-.1 2.4 0 2.5-4 .1-4h-25.8l-11.6 21.7h42.3z"
       id="path7" />
    <path
       d="m178.5 294.4c-.2-.3-1.4.4-2.2.3-.4 0-1.4-.3-1.8-.4-.5-.1-1.9-.3-2.3.1-.1.1-1.6 3.1-2.3 4.7-2.5 0-7.3 0-8.1 0-2.4 0-2.5 4-.1 4h20.5z"
       id="path8" />
    <circle
       cx="35"
       cy="315"
       r="2.2"
       id="circle8" />
    <path
       d="m49.4 321.3c-1.9 3.6-6 7-6.1 7.2-.4.4-1 .5-1.5.5-.7 0-1.3-.3-1.8-.8-.8-1-.7-2.4.3-3.2 0 0 3.6-3 5-5.8 1-1.8 3.6-9.9 5.6-16.6-3.7-4.7-9.5-7.8-16-7.8-11.2 0-20.3 9.1-20.3 20.3s9.1 20.3 20.3 20.3 20.3-9.1 20.3-20.3c0-2.4-.4-4.7-1.2-6.9-1.6 5.1-3.6 11.2-4.6 13.1zm-22.2-6.3c0-4.3 3.5-7.8 7.8-7.8s7.8 3.5 7.8 7.8-3.5 7.8-7.8 7.8-7.8-3.5-7.8-7.8z"
       id="path9" />
    <path
       d="m128.8 307.6c-.7-1.8-11.7.7-24.5 5.7s-22.6 10.6-21.8 12.4c.4.9 3.2.7 7.4-.2 4.8 6.8 13.7 9.8 21.8 6.6s12.6-11.4 11.5-19.6c3.8-2.2 5.9-4 5.6-4.9z"
       id="path10" />
    <path
       d="m102.6 309.1c6.1-2.4 12-4.3 16.7-5.5-4.9-6.2-13.4-8.8-21.1-5.8s-12.2 10.7-11.6 18.6c4.3-2.3 9.9-4.9 16-7.3z"
       id="path11" />
    <path
       d="m187 237h-12-12l-3 9.5h15 15z"
       id="path12" />
    <path
       d="m193 251h-18-18l-3 10h21 21z"
       id="path13" />
    <path
       d="m167 223.5v9h4.7v-4.5h6.5v4.5h4.8v-9z"
       id="path14" />
    <path
       d="m31.6 171.6 2.6-11.9c.2-.9 1.4-.9 1.6 0l2.6 11.9 11.8 2.6c.9.2.9 1.4 0 1.6l-11.8 2.6-2.6 11.9c-.2.9-1.4.9-1.6 0l-2.6-11.9-11.8-2.6c-.9-.2-.9-1.4 0-1.6z"
       id="path15" />
    <circle
       cx="43.7"
       cy="165.9"
       r="2.2"
       id="circle15" />
    <circle
       cx="50.4"
       cy="159.9"
       r="2.2"
       id="circle16" />
    <circle
       cx="19.1"
       cy="189.4"
       r="2.2"
       id="circle17" />
    <circle
       cx="25.8"
       cy="183.4"
       r="2.2"
       id="circle18" />
    <circle
       cx="43.7"
       cy="183.4"
       r="2.2"
       id="circle19" />
    <circle
       cx="50.4"
       cy="189.4"
       r="2.2"
       id="circle20" />
    <circle
       cx="25.8"
       cy="165.9"
       r="2.2"
       id="circle21" />
    <circle
       cx="19.1"
       cy="159.9"
       r="2.2"
       id="circle22" />
    <path
       d="m86 172.5 19 23 19-23z"
       id="path22" />
    <path
       d="m98.2 158 6.8 10 6.7-10z"
       id="path23" />
    <path
       d="m124 168-6.8-10-6.7 10z"
       id="path24" />
    <path
       d="m99.5 168-6.8-10-6.7 10z"
       id="path25" />
    <path
       d="m174.9 433.9-20.8 35.3h41.8zm.1 23.9c-2.3 0-4.2-1.9-4.2-4.2s1.9-4.2 4.2-4.2 4.2 1.9 4.2 4.2-1.9 4.2-4.2 4.2z"
       id="path26" />
    <path
       d="m89.2 250.2c-2.4 2.4-4.5 8.4-4.5 8.4s6-2.1 8.4-4.5z"
       id="path27" />
    <path
       d="m96 257c-2.4 2.4-4.5 8.4-4.5 8.4s6-2.1 8.4-4.5z"
       id="path28" />
    <path
       d="m116.1 247.4 6.7-11.1c1.6-2.7 1.4-8.1.3-9.2s-6.5-1.4-9.2.3l-11.1 6.7-12.2-.2-5.7 5.7 12.9 12.9 12.9 12.9 5.7-5.7zm-10.8-10.8 11.1-6.7 3.9 3.9-6.7 11z"
       id="path29" />
    <path
       d="m122.1 378.6c-2.6-4.2-8-8.1-8-8.1s.6-2.2.4-2.9c-.1-.4-1.1-.9-1.1-.9s-1.1-.5-1.4-.3c-.6.3-2 2.1-2 2.1s-6.4-1.9-11.3-1.4-10.8 3-10.8 3-1.6 3.2-1.8 3.6c1.3 1.5 5.6 4.3 6.2 4.7.8-1.1 2.1-2.7 2.5-3 .7-.6 1.3-.6 2-.2.9.6-.1 2.8-1.4 5.1 1.9 1.3 5.8 3.2 7 3.9 1.1-2.2 2.8-4.6 4.3-3.9s.6 3.5-.5 5.8c1.3.6 5.2 2.5 7.3 3.2 1-2.4 2.2-4.6 3.2-4.2.8.3 1.1.8 1.1 1.7 0 .6-.5 2.6-.9 3.8.8.3 5.6 2 7.6 2.1.2-.4 1.8-3.6 1.8-3.6s-1.6-6.3-4.2-10.5z"
       id="path30" />
    <path
       d="m92.4 404.1 7.3-14.8 4 2-7.3 14.8z"
       id="path31" />
    <path
       d="m187.8 376.9-6.1 4.1-6.1-4.1-6.1 4.1v-9.2l-6.1-8.2-6.1 8.2v30.7h13.8v-6.9c0-2.5 2.1-4.6 4.6-4.6s4.6 2.1 4.6 4.6v6.9h13.8v-21.5z"
       id="path32" />
    <path
       d="m58.3 396.8c-1.4-1.9-3.8-4.9-8-8.5-4.6-3.8-8.1-5.2-8.1-5.2s2-3.7 2.8-5.1 1.9-3.9 1.4-4.5c-.5-.5-3.1.7-4.5 1.4-1.4.8-5.1 2.8-5.1 2.8s-1.4-3.5-5.2-8.1c-3.5-4.3-6.5-6.7-8.5-8-1-.7-1.6 1-2.1 3.9-1 5.7-1.5 12.7 4.6 23 0 0-6.5 4.6-8.2 5.6-1 .6-.8 1.4-.4 1.9.4.4 3 3.2 3.4 3.5.3.4 3.1 3 3.5 3.4s1.2.6 1.9-.4c1.1-1.6 5.6-8.2 5.6-8.2 10.2 6.1 17.3 5.6 23 4.6 2.9-.4 4.6-1 3.9-2.1z"
       id="path33" />
    <path
       d="m155.8 113.6h38.5c-6.9-3.3-11.8-8.5-11.8-9.4h7.3c-5.6-3.1-10.3-8.1-10.3-9h7.2c-7.6-4.2-11.1-12-11.5-12.3-.5.3-4 8.1-11.5 12.3h7.2c0 1-4.7 5.9-10.3 9h7.3c-.3 1-5.2 6.1-12.1 9.4z"
       id="path36" />
    <path
       d="m172.3 118.1h5.4v6.5h-5.4z"
       id="path37" />
    <path
       d="m119.7 112c-3.6 3.1-7.8 5.1-11.6 5.9v-20h10.7c1 0 1.8-.8 1.8-1.8s-.8-1.8-1.8-1.8h-10.3c1.7-1.1 2.8-3 2.8-5.2 0-3.5-2.8-6.2-6.2-6.2-3.5 0-6.2 2.8-6.2 6.2 0 2.2 1.1 4.1 2.8 5.2h-10.5c-1 0-1.8.8-1.8 1.8s.8 1.8 1.8 1.8h10.7v19.9c-3.8-.8-8-2.8-11.6-5.9l-5.3 1.5c5.3 7.1 14.6 11.7 20 12 5.4-.3 14.7-4.9 20-12zm-14.7-25.6c1.5 0 2.8 1.2 2.8 2.7s-1.2 2.8-2.7 2.8-2.8-1.2-2.8-2.7c-.1-1.5 1.2-2.8 2.7-2.8z"
       id="path38" />
    <path
       d="m32.9 112.2c-3.2-3.7-3.2-8.4-1.5-11.1 2.6-4 4.4-6.1 4.4-6.1s4.3 2.5 4.4 8.5c.1 2.3-.3 5.8-3.2 8.7 3.4-.6 6.7-2.6 8.5-5.4 2.7-4.1 3-9.8.5-14.1-4.3-7.5-13.2-11.3-13.2-11.3s.6 5.6-7.7 13.2c-3.7 3.4-3.4 9.3-.1 12.7 2.2 2.2 4.8 4 7.9 4.9z"
       id="path39" />
    <path
       d="m45.1 116.8h-20.2c-1.2 0-2.2.9-2.2 2.1v6.5h24.6v-6.5c0-1.2-1-2.1-2.2-2.1z"
       id="path40" />
    <path
       d="m181.3 579.4 10.2 27.9h7.5z"
       id="path55" />
    <rect
       style="fill:#000000;fill-opacity:1;fill-rule:evenodd;stroke:#6b1b01;stroke-width:2.25;stroke-dasharray:none"
       id="rect57"
       width="88.814316"
       height="94.630875"
       x="65.10067"
       y="401.34229"
       ry="15.849413" />
    <g
       id="g56">
      <path
         d="m 104.03864,445.30492 c -9.686237,0.36982 -16.314217,5.39873 -22.738049,12.85422 7.029277,6.94185 13.945771,11.41645 23.723369,11.00598 9.68624,-0.36982 16.31422,-5.39873 22.73805,-12.85422 -6.98862,-6.85049 -14.03713,-11.37581 -23.72337,-11.00598 z m 7.48828,11.66301 c 0.18447,3.85823 -2.82964,7.16959 -6.81988,7.30336 -3.85825,0.18448 -7.169607,-2.82963 -7.303373,-6.81989 -0.184475,-3.85823 2.829633,-7.16959 6.819883,-7.30337 3.89889,-0.0931 7.21025,2.92101 7.30337,6.8199 z"
         id="path34" />
      <path
         sodipodi:type="spiral"
         style="fill:none;fill-rule:evenodd;stroke:#000000;stroke-width:2.25;stroke-dasharray:none"
         id="path57"
         sodipodi:cx="104.5313"
         sodipodi:cy="457.23749"
         sodipodi:expansion="1"
         sodipodi:revolution="3"
         sodipodi:radius="19.773375"
         sodipodi:argument="-17.446367"
         sodipodi:t0="0"
         d="m 104.5313,457.23749 c 0.16539,0.97751 -1.23607,0.70521 -1.62469,0.27489 -1.05313,-1.16615 -0.11606,-2.91062 1.07491,-3.52427 2.13039,-1.09769 4.60497,0.35476 5.42385,2.42471 1.20175,3.03774 -0.82414,6.32787 -3.77451,7.32343 -3.93237,1.32693 -8.061634,-1.29199 -9.223008,-5.12431 -1.461472,-4.82259 1.758857,-9.80076 6.474118,-11.12259 5.7108,-1.60092 11.54293,2.22511 13.02217,7.82391 1.74323,6.59799 -2.69099,13.28702 -9.17372,14.92175 -7.484564,1.88737 -15.032373,-3.15661 -16.82133,-10.52352 -2.032726,-8.37075 3.622049,-16.77862 11.87332,-18.72091 9.25668,-2.17895 18.52552,4.08736 20.62049,13.22312 2.32581,10.14243 -4.55258,20.27291 -14.57292,22.52007" />
    </g>
  </g>
</svg>
