<svg version="1.1" xmlns="http://www.w3.org/2000/svg" xmlns:xlink="http://www.w3.org/1999/xlink" width="126" height="150" viewBox="0,0,126,150"><g transform="translate(-177,-105)"><g data-paper-data="{&quot;isPaintingLayer&quot;:true}" fill-rule="nonzero" stroke="none" stroke-width="1" stroke-linecap="butt" stroke-linejoin="miter" stroke-miterlimit="10" stroke-dasharray="" stroke-dashoffset="0" style="mix-blend-mode: normal"><path d="M177,105h126v150h-126z" fill="none" opacity="0.6"/><path d="M275.14,156.81c0,0 0,20.94 -1,29.48c0,0 0.29,3.32 -2.71,11.46c-3.03,8.3 -2.58,15.44 -3.52,21.53c-1.65,12.81 -4.71,15.48 -4.71,15.48c-4.04,4.27 -6.92,7.58 -9.4,9.8c-2.48,2.22 -9.57,9.41 -14.71,9.41c-4.9,0.03 -9.67,-3.75 -17,-12.41c-4.01,-4.72 -3.3,-4 -6.48,-7c0,0 -5.14,-4.85 -5.79,-15.25c-0.98,-6.03 -0.25,-14.01 -1.49,-21.2c-0.55,-3.2 -2.63,-5.79 -3.16,-11.74c-0.6,-6.6 -0.63,-8.11 0.32,-19.92c13.64607,-2.1091 26.76611,-6.79581 38.66,-13.81c3.03,-1.82 -6.49,7.85 -7.32,9c-0.83,1.15 14.22,-1.64 34.9,-12.46c3.61,-1.89 3.37,6.57 3.41,7.63z" fill="#d2d2d2"/><path d="M215.58,234.56c-5.95,-2.5 -8.45,-6.7 -9,-7.06c0,0.75 0.54,4.11 -0.14,3.56c-7.18,-5.23 -10.62,-19.39 -12.09,-27.92c-4.78518,3.50258 -10.74716,5.00204 -16.62,4.18c-0.91,-0.17 9.49,-5.65 11.27,-11.17c0,0 -3.29,3.63 -11.44,3.57c-0.71,-0.01 5.44,-3.22 9.26,-13.36h3.07v7.06c0.21041,1.99857 1.87099,3.53076 3.88,3.58h1.5v0.32c0.34135,3.21723 2.9968,5.69367 6.23,5.81c2.98,0 5.39,-3.53 5.39,-5.81v-3.63c0.61519,1.42486 1.094,2.90481 1.43,4.42c1.24,7.2 0.49,15.2 1.49,21.2c0.65,10.4 5.79,15.25 5.77,15.25z" fill="#000000"/><path d="M289.96,195.41c-0.01,1.85 -0.12,4.02 -0.37,6.66c-1.1,11.34 -10,25.8 -10,25.8c-0.66,-1.24 -0.69,-2.87 -1.21,-4.1c-1.65989,3.63135 -4.27672,6.74251 -7.57,9c0.02,-2.08 0.96,-4.29 0.63,-5.55c-0.15,-0.59 -2.38,4.94 -8.27,7.59c0,0 3.06,-2.67 4.71,-15.48c0.94,-6.09 0.52,-13.23 3.52,-21.53c1.04618,-2.7596 1.85577,-5.60318 2.42,-8.5v8c0,2.28 2.39,5.81 5.39,5.81c3.27547,-0.01207 5.98972,-2.54334 6.23,-5.81v-0.3h1.35c1.24452,-0.01609 2.41291,-0.60212 3.17,-1.59z" fill="#000000"/><path d="M271.73,149.18c-20.68,10.82 -35.69,13.45 -34.9,12.45c0.79,-1 10.32,-10.81 7.32,-9c-11.88661,7.04921 -25.00705,11.76999 -38.66,13.91c-1.12258,-1.46147 -2.86726,-2.30973 -4.71,-2.29c-1.47571,-0.09031 -2.9199,0.45305 -3.9701,1.49371c-1.0502,1.04066 -1.60673,2.47982 -1.5299,3.95629v0.3h-2.13l1.15,-18.42c0.31114,-2.33269 0.75182,-4.64627 1.32,-6.93c3.58,-10.75 9.49,-17.91 16,-22.65c10.38,-7.57 22.18,-9 28.66,-9.13c6.48,0.13 18.33,1.56 28.72,9.13c6.46,4.69 12.36,11.85 15.95,22.65c0.57214,2.27949 1.01287,4.58996 1.32,6.92l1.17,18.43h-2v-0.35c0,-3.1 -1.95,-5.48 -5.81,-5.48c-1.85906,0.07157 -3.57369,1.02167 -4.62,2.56c0.09,-5.54 0.09,-9.89 0.09,-9.89c0,-1.09 0.24,-9.55 -3.37,-7.66z" fill="#000000"/><path d="M186.5,126.93v29.94l-3.28,2.25v-32.19c0,-0.90575 0.73425,-1.64 1.64,-1.64c0.90348,0.00546 1.63454,0.73652 1.64,1.64z" fill="#9977ce"/><path d="M193.15,169.95c-3.98,0 -3.26,4.54 -3.26,6.69v9.72h-6.67v-27.24l11.09,-7.62z" fill="#a23670"/><path d="M297.35,126.93v32.19l-3.28,-2.25v-29.94c0,-0.90575 0.73425,-1.64 1.64,-1.64c0.90348,0.00546 1.63454,0.73652 1.64,1.64z" fill="#9977ce"/><path d="M286.25,151.5l11.1,7.62v27.24h-6.68v-9.72c0,-2.15 0.73,-6.69 -3.25,-6.69z" fill="#a23670"/><path d="M195.28,170v27h-1.51c-1.9853,-0.04468 -3.63724,-1.53909 -3.88,-3.51v-16.8c0,-2.15 -0.74,-6.69 3.26,-6.69z" fill="#543883"/><path d="M177,105h126v150h-126z" fill="none" opacity="0.6"/><path d="M285.43,169.65v27.67c-0.24028,3.26666 -2.95453,5.79793 -6.23,5.81c-2.98,0 -5.39,-3.53 -5.39,-5.81v-8c0.20809,-0.98608 0.30536,-1.99232 0.29,-3c0.54,-4.65 0.79,-12.97 0.9,-19.59c1.04838,-1.54111 2.76736,-2.49156 4.63,-2.56c3.86,0 5.81,2.38 5.8,5.48z" fill="#262254"/><path d="M206.9,193.69v3.63c0,2.28 -2.39,5.81 -5.39,5.81c-3.2332,-0.11633 -5.88865,-2.59277 -6.23,-5.81v-27.67c-0.07683,-1.47648 0.4797,-2.91564 1.5299,-3.95629c1.0502,-1.04066 2.49439,-1.58401 3.9701,-1.49371c1.84274,-0.01973 3.58742,0.82853 4.71,2.29c-0.95,11.77 -0.91,13.28 -0.32,19.88c0.21599,2.51141 0.79884,4.97761 1.73,7.32z" fill="#262254"/><path d="M290.65,176.64v16.78c-0.21041,1.99857 -1.87099,3.53076 -3.88,3.58h-1.35v-27h2c3.98,0 3.25,4.49 3.23,6.64z" fill="#543883"/><path d="M286.32,151.57c-0.30713,-2.33004 -0.74786,-4.64051 -1.32,-6.92c-3.59,-10.75 -9.49,-17.91 -16,-22.65c-10.39,-7.57 -22.24,-9 -28.72,-9.13c-6.48,0.13 -18.28,1.56 -28.65,9.05c-6.52,4.74 -12.43,11.9 -16,22.65c-0.56818,2.28373 -1.00886,4.59731 -1.32,6.93l-7.8,5.36c2.49,-25.13 10.7,-33.29 20.24,-40.38c9.36,-6.94 20.79,-10.18 32.59,-10.48h0.94h0.94c11.78,0.32 23.23,3.56 32.6,10.5c9.53,7.07 17.75,15.23 20.24,40.36l-7.81,-5.36z" fill="#ec4176"/></g></g></svg>